<?xml version="1.0" standalone="no"?>
<!DOCTYPE svg PUBLIC "-//W3C//DTD SVG 20010904//EN"
 "http://www.w3.org/TR/2001/REC-SVG-20010904/DTD/svg10.dtd">
<svg version="1.0" xmlns="http://www.w3.org/2000/svg"
 width="512.000000pt" height="504.000000pt" viewBox="0 0 512.000000 504.000000"
 preserveAspectRatio="xMidYMid meet">

<g transform="translate(0.000000,504.000000) scale(0.100000,-0.100000)"
fill="#000000" stroke="none">
<path d="M1755 4959 c-156 -23 -339 -94 -478 -186 -145 -97 -299 -277 -387
-452 -42 -84 -113 -153 -187 -181 -49 -19 -71 -21 -138 -16 -292 22 -333 19
-406 -29 -59 -38 -84 -102 -84 -210 0 -83 3 -96 37 -165 20 -41 58 -102 85
-135 105 -129 307 -278 541 -399 143 -74 185 -109 185 -156 0 -44 -27 -75
-139 -160 -319 -242 -523 -569 -601 -965 -13 -67 -17 -136 -17 -270 1 -195 18
-310 71 -465 173 -511 633 -896 1228 -1029 341 -76 989 -92 1435 -35 868 110
1490 439 1837 970 306 470 394 1105 227 1651 -51 170 -138 344 -232 466 -57
75 -177 194 -214 213 -26 14 -32 14 -52 0 -13 -8 -62 -73 -108 -144 -157 -238
-301 -351 -549 -432 -134 -44 -246 -61 -441 -67 -189 -6 -336 5 -493 37 -108
22 -143 35 -172 62 -54 51 -35 116 74 244 240 286 325 655 233 1014 -141 553
-691 920 -1255 839z"/>
</g>
</svg>
